<svg xmlns="http://www.w3.org/2000/svg" viewBox="0 0 1254 1254" role="img" aria-labelledby="title desc">
  <title id="title">Vectorized white ribbon M logo</title>
  <desc id="desc">A traced vector version of the supplied PNG: white folded-ribbon M on a purple gradient background.</desc>
  <defs>
    <radialGradient id="bg" cx="50%" cy="43%" r="82%">
      <stop offset="0" stop-color="#8d7df8"/>
      <stop offset=".46" stop-color="#8175f6"/>
      <stop offset="1" stop-color="#8376f6"/>
    </radialGradient>
    <radialGradient id="logoGlow" cx="51%" cy="51%" r="32%">
      <stop offset="0" stop-color="#f0edff" stop-opacity=".42"/>
      <stop offset=".42" stop-color="#d5ccff" stop-opacity=".16"/>
      <stop offset="1" stop-color="#8276f6" stop-opacity="0"/>
    </radialGradient>
    <linearGradient id="ribbonFace" x1="190" y1="760" x2="980" y2="410" gradientUnits="userSpaceOnUse">
      <stop offset="0" stop-color="#ffffff"/>
      <stop offset=".56" stop-color="#fffefa"/>
      <stop offset="1" stop-color="#f9f4ff"/>
    </linearGradient>
    <linearGradient id="foldTone" x1="650" y1="340" x2="1000" y2="880" gradientUnits="userSpaceOnUse">
      <stop offset="0" stop-color="#f6f0ff"/>
      <stop offset=".5" stop-color="#ffffff"/>
      <stop offset="1" stop-color="#d9c8ff"/>
    </linearGradient>
    <filter id="shadowBlur" x="-5%" y="-8%" width="112%" height="116%">
      <feGaussianBlur stdDeviation="8"/>
    </filter>
  </defs>
  <rect width="1254" height="1254" fill="url(#bg)"/>
  <rect width="1254" height="1254" fill="url(#logoGlow)"/>
  <rect y="903" width="1254" height="351" fill="#8275f5" opacity=".13"/>
  <path d="M213.0 744.0 L214.0 784.0 L225.0 825.0 L231.0 837.0 L233.0 821.0 L236.0 825.0 L233.0 830.0 L234.0 827.0 L238.0 830.0 L237.0 834.0 L246.0 840.0 L249.0 847.0 L236.0 826.0 L221.0 768.0 L223.0 749.0 L230.0 744.0 L238.0 744.0 L259.0 756.0 L280.0 759.0 L300.0 751.0 L317.0 735.0 L352.0 684.0 L460.0 499.0 L538.0 383.0 L565.0 353.0 L586.0 337.0 L613.0 326.0 L635.0 325.0 L662.0 333.0 L698.0 356.0 L725.0 383.0 L732.0 403.0 L732.0 440.0 L723.0 501.0 L683.0 678.0 L686.0 667.0 L688.0 677.0 L681.0 684.0 L758.0 580.0 L795.0 539.0 L826.0 519.0 L840.0 515.0 L862.0 515.0 L889.0 525.0 L913.0 541.0 L933.0 560.0 L941.0 577.0 L942.0 619.0 L924.0 786.0 L925.0 777.0 L926.0 785.0 L934.0 790.0 L924.0 792.0 L923.0 788.0 L923.0 792.0 L974.0 780.0 L999.0 768.0 L1028.0 748.0 L1037.0 749.0 L1041.0 755.0 L1035.0 778.0 L1015.0 817.0 L980.0 859.0 L957.0 872.0 L970.0 865.0 L969.0 871.0 L977.0 866.0 L974.0 862.0 L979.0 863.0 L979.0 867.0 L972.0 874.0 L967.0 874.0 L963.0 881.0 L990.0 865.0 L1014.0 839.0 L1030.0 814.0 L1049.0 769.0 L1049.0 746.0 L1046.0 741.0 L1019.0 740.0 L972.0 769.0 L933.0 780.0 L950.0 628.0 L950.0 573.0 L945.0 557.0 L927.0 537.0 L885.0 511.0 L871.0 507.0 L831.0 507.0 L803.0 518.0 L764.0 554.0 L705.0 629.0 L735.0 486.0 L741.0 436.0 L740.0 394.0 L733.0 374.0 L707.0 348.0 L671.0 325.0 L644.0 317.0 L610.0 317.0 L591.0 322.0 L568.0 335.0 L539.0 363.0 L471.0 461.0 L329.0 699.0 L295.0 740.0 L276.0 750.0 L247.0 736.0 L221.0 736.0 Z M617.0 479.0 L614.0 482.0 L617.0 481.0 L604.0 552.0 L602.0 548.0 L597.0 551.0 L600.0 570.0 L597.0 564.0 L590.0 567.0 L539.0 774.0 L538.0 832.0 L544.0 851.0 L555.0 865.0 L559.0 855.0 L571.0 862.0 L558.0 851.0 L548.0 832.0 L545.0 811.0 L547.0 783.0 L601.0 567.0 Z M774.0 727.0 L756.0 749.0 L763.0 748.0 L762.0 756.0 L755.0 758.0 L753.0 753.0 L757.0 751.0 L743.0 768.0 L747.0 766.0 L748.0 771.0 L740.0 772.0 L683.0 855.0 L663.0 873.0 L647.0 876.0 L665.0 872.0 L665.0 880.0 L668.0 880.0 L657.0 884.0 L678.0 877.0 L701.0 851.0 L773.0 746.0 L758.0 747.0 Z M819.0 723.0 L814.0 816.0 L820.0 845.0 L832.0 862.0 L829.0 859.0 L835.0 851.0 L844.0 858.0 L835.0 851.0 L830.0 839.0 L831.0 845.0 L824.0 845.0 L824.0 840.0 L829.0 837.0 L825.0 823.0 L824.0 826.0 L820.0 824.0 L823.0 811.0 L823.0 815.0 L820.0 788.0 L822.0 780.0 L823.0 783.0 L825.0 727.0 L823.0 729.0 Z" fill="#5e2bd4" opacity=".16" filter="url(#shadowBlur)"/>
  <path d="M1040.0 755.0 L1037.0 750.0 L1028.0 749.0 L999.0 769.0 L974.0 781.0 L931.0 793.0 L922.0 792.0 L926.0 744.0 L941.0 619.0 L942.0 591.0 L938.0 570.0 L932.0 560.0 L913.0 542.0 L889.0 526.0 L876.0 520.0 L862.0 516.0 L840.0 516.0 L826.0 520.0 L812.0 527.0 L795.0 540.0 L773.0 563.0 L745.0 598.0 L684.0 683.0 L681.0 682.0 L707.0 575.0 L722.0 501.0 L731.0 440.0 L731.0 403.0 L727.0 389.0 L721.0 379.0 L704.0 362.0 L686.0 348.0 L668.0 337.0 L649.0 329.0 L635.0 326.0 L619.0 326.0 L600.0 331.0 L577.0 344.0 L556.0 363.0 L527.0 399.0 L462.0 499.0 L353.0 684.0 L336.0 711.0 L318.0 735.0 L300.0 752.0 L293.0 756.0 L280.0 760.0 L265.0 759.0 L252.0 754.0 L238.0 745.0 L230.0 745.0 L226.0 747.0 L222.0 753.0 L222.0 768.0 L227.0 794.0 L238.0 825.0 L251.0 847.0 L269.0 865.0 L287.0 875.0 L303.0 879.0 L322.0 879.0 L342.0 873.0 L356.0 865.0 L385.0 838.0 L405.0 812.0 L435.0 766.0 L544.0 586.0 L615.0 480.0 L618.0 481.0 L606.0 549.0 L585.0 636.0 L553.0 757.0 L547.0 790.0 L546.0 811.0 L549.0 832.0 L556.0 847.0 L569.0 860.0 L586.0 868.0 L620.0 875.0 L655.0 875.0 L669.0 868.0 L682.0 855.0 L692.0 842.0 L774.0 722.0 L833.0 645.0 L836.0 646.0 L836.0 655.0 L825.0 756.0 L823.0 807.0 L826.0 827.0 L834.0 846.0 L845.0 858.0 L851.0 862.0 L875.0 871.0 L915.0 876.0 L947.0 875.0 L964.0 868.0 L981.0 856.0 L997.0 840.0 L1012.0 820.0 L1031.0 785.0 L1039.0 764.0 Z" fill="url(#ribbonFace)" fill-rule="evenodd"/>
  <path d="M705.0 395.0 L694.0 395.0 L689.0 397.0 L674.0 408.0 L651.0 433.0 L618.0 477.0 L615.0 503.0 L608.0 535.0 L609.0 539.0 L607.0 540.0 L605.0 550.0 L605.0 559.0 L607.0 559.0 L610.0 556.0 L611.0 549.0 L616.0 542.0 L619.0 542.0 L622.0 538.0 L622.0 535.0 L628.0 529.0 L629.0 524.0 L631.0 522.0 L634.0 522.0 L635.0 518.0 L639.0 517.0 L639.0 514.0 L642.0 513.0 L642.0 510.0 L651.0 502.0 L653.0 496.0 L657.0 494.0 L661.0 486.0 L664.0 485.0 L664.0 483.0 L670.0 478.0 L673.0 471.0 L683.0 465.0 L686.0 461.0 L688.0 461.0 L691.0 455.0 L696.0 454.0 L699.0 450.0 L704.0 450.0 L705.0 448.0 L711.0 447.0 L713.0 445.0 L715.0 433.0 L715.0 413.0 L711.0 401.0 Z M713.0 648.0 L711.0 648.0 L705.0 653.0 L696.0 666.0 L696.0 669.0 L693.0 670.0 L693.0 673.0 L680.0 687.0 L656.0 774.0 L646.0 816.0 L644.0 839.0 L646.0 848.0 L648.0 852.0 L652.0 855.0 L658.0 855.0 L662.0 853.0 L674.0 840.0 L672.0 828.0 L676.0 808.0 L676.0 799.0 L679.0 796.0 L679.0 790.0 L685.0 774.0 L685.0 761.0 L687.0 760.0 L689.0 754.0 L688.0 745.0 L691.0 743.0 L693.0 737.0 L693.0 729.0 L696.0 724.0 L695.0 719.0 L697.0 717.0 L698.0 707.0 L700.0 705.0 L700.0 701.0 L703.0 697.0 L703.0 692.0 L705.0 690.0 L703.0 683.0 L704.0 676.0 L711.0 660.0 Z M918.0 574.0 L905.0 574.0 L888.0 585.0 L862.0 611.0 L836.0 642.0 L836.0 655.0 L834.0 666.0 L835.0 677.0 L833.0 678.0 L832.0 686.0 L833.0 693.0 L836.0 692.0 L838.0 688.0 L838.0 683.0 L842.0 681.0 L843.0 678.0 L849.0 677.0 L854.0 668.0 L865.0 660.0 L872.0 650.0 L883.0 640.0 L885.0 640.0 L887.0 635.0 L891.0 631.0 L914.0 620.0 L918.0 615.0 L926.0 613.0 L926.0 587.0 L923.0 579.0 Z M923.0 793.0 L922.0 824.0 L926.0 846.0 L934.0 856.0 L946.0 857.0 L944.0 844.0 L945.0 839.0 L941.0 832.0 L943.0 816.0 L946.0 808.0 L943.0 806.0 L945.0 805.0 L945.0 802.0 L938.0 793.0 Z M564.0 851.0 L564.0 854.0 L568.0 858.0 L574.0 860.0 L577.0 864.0 L586.0 868.0 L592.0 868.0 L597.0 871.0 L613.0 874.0 L620.0 873.0 L621.0 875.0 L638.0 874.0 L634.0 867.0 L625.0 864.0 L621.0 861.0 L617.0 861.0 L614.0 859.0 L602.0 861.0 L601.0 859.0 L595.0 859.0 L594.0 857.0 L584.0 856.0 L582.0 858.0 L575.0 860.0 L575.0 855.0 L573.0 853.0 Z M854.0 859.0 L854.0 862.0 L857.0 865.0 L862.0 865.0 L865.0 868.0 L871.0 870.0 L874.0 869.0 L875.0 871.0 L879.0 870.0 L880.0 872.0 L900.0 875.0 L928.0 876.0 L927.0 873.0 L922.0 871.0 L912.0 863.0 L903.0 861.0 L888.0 862.0 L885.0 860.0 L874.0 861.0 L870.0 859.0 Z" fill="url(#foldTone)" fill-rule="evenodd" opacity=".86"/>
</svg>
